<svg width="32" height="32" viewBox="0 0 32 32" fill="none" xmlns="http://www.w3.org/2000/svg">
<path d="M0 4.26667C0 1.91025 1.91025 0 4.26667 0H27.7333C30.0898 0 32 1.91025 32 4.26667V27.7333C32 30.0898 30.0898 32 27.7333 32H4.26667C1.91025 32 0 30.0898 0 27.7333V4.26667Z" fill="#2B64F9"/>
<mask id="mask0_557_6730" style="mask-type:alpha" maskUnits="userSpaceOnUse" x="0" y="0" width="32" height="32">
<rect width="32" height="32" fill="white"/>
</mask>
<g mask="url(#mask0_557_6730)">
<path d="M42.8016 15.6239C42.8016 16.5415 42.7017 17.4362 42.5135 18.2939C42.3841 18.8802 41.8642 19.2982 41.2611 19.2982H17.3706C16.9442 19.2982 16.8187 19.5646 17.0927 19.8896L22.7564 26.6086C23.0317 26.9336 22.9062 27.2 22.4798 27.2H15.3192C14.8928 27.2 14.3191 26.9336 14.0451 26.6086L10.1037 21.9325C9.82966 21.6076 9.3802 21.0735 9.10745 20.7486L8.09968 19.5556C7.77828 19.1746 7.60156 18.6928 7.60156 18.1945V14.157C7.60156 13.6561 7.77956 13.1718 8.10225 12.7895L9.10745 11.5991C9.38148 11.2741 9.83094 10.7401 10.1037 10.4151L14.0016 5.79131C14.2769 5.46632 14.8505 5.19995 15.277 5.19995H22.4363C22.8627 5.19995 22.9882 5.46632 22.7142 5.79131L17.0338 12.5282C16.7598 12.8532 16.8853 13.1195 17.3117 13.1195H42.548C42.7158 13.9276 42.8016 14.7649 42.8016 15.6239Z" fill="white"/>
</g>
</svg>
