<svg width="102" height="25" viewBox="0 0 102 25" fill="none" xmlns="http://www.w3.org/2000/svg">
<mask id="mask0_1_30" style="mask-type:luminance" maskUnits="userSpaceOnUse" x="0" y="0" width="76" height="25">
<path d="M76 0.171387H0V24.1714H76V0.171387Z" fill="white"/>
</mask>
<g mask="url(#mask0_1_30)">
<path d="M13.3892 7.58643C14.7539 7.58643 15.8106 8.02682 16.955 8.73199C17.0869 8.81979 17.1974 8.86404 17.2852 8.86404C17.4392 8.86404 17.5711 8.73199 17.7472 8.44508L18.7597 6.77064C19.0235 6.33025 18.98 6.15396 18.6278 5.93342C16.6912 4.74361 15.3486 4.3689 13.2793 4.3689C9.93379 4.36959 7.46883 6.22032 7.46883 9.34867C7.46883 13.2707 11.0126 13.6668 13.4997 14.13C14.8644 14.3941 15.7229 14.681 15.7229 15.7381C15.7229 16.6196 15.0405 17.1485 13.3235 17.1485C11.8711 17.1485 10.2639 16.5539 8.96549 15.7381C8.83357 15.6503 8.72307 15.6061 8.63535 15.6061C8.48133 15.6061 8.34942 15.7381 8.1733 16.025L7.1608 17.7658C6.91838 18.2062 6.94048 18.339 7.29271 18.6031C8.81147 19.7265 10.9905 20.366 13.4334 20.366C16.9329 20.366 19.3544 18.3832 19.3544 15.5632C19.3544 11.5313 15.9867 11.1787 13.4997 10.7383C12.0907 10.4956 11.1003 10.2315 11.1003 9.19589C11.1003 8.16025 11.9367 7.58781 13.3892 7.58781V7.58643Z" fill="white"/>
<path d="M21.1743 8.39115H20.2613C19.782 8.39115 19.6445 8.52804 19.6445 9.00715V11.5672C19.6445 12.0463 19.7813 12.1832 20.2613 12.1832H21.0376V16.0146C21.0376 19.2785 22.796 20.6024 25.4447 20.6024C26.107 20.6024 27.1575 20.4884 27.9794 19.9629C28.3448 19.7348 28.4587 19.5979 28.2992 19.1872L27.5685 17.3158C27.4773 17.0876 27.3626 16.9507 27.0663 17.0648C26.5642 17.2473 26.29 17.3614 25.7651 17.3614C24.9205 17.3614 24.6463 17.0876 24.6463 16.0146V12.1832H27.4089C27.8882 12.1832 28.0257 12.0463 28.0257 11.5672V9.00715C28.0257 8.52804 27.8889 8.39115 27.4089 8.39115H24.6463V6.51968C24.6463 6.04057 24.5095 5.90369 24.0295 5.90369H21.7918C21.3125 5.90369 21.175 6.04057 21.175 6.51968L21.1743 8.39115Z" fill="white"/>
<path d="M36.869 12.0435C37.3255 12.0435 37.4629 11.9516 37.5313 11.4704L37.8739 8.95667C37.9195 8.54394 37.8967 8.38354 37.3262 8.38354C35.1796 8.38354 34.1291 8.94768 33.3528 10.255L32.6677 9.03963C32.4163 8.60408 32.234 8.42019 31.8686 8.42019H30.7725C30.2932 8.42019 30.1558 8.55776 30.1558 9.03963V19.7458C30.1558 20.2277 30.2925 20.3653 30.7725 20.3653H33.147C33.6263 20.3653 33.7638 20.2277 33.7638 19.7458V14.4287C33.7638 12.8234 34.5856 12.0435 36.869 12.0435Z" fill="white"/>
<path d="M39.6909 19.7478C39.6909 20.2283 39.827 20.3652 40.3035 20.3652H42.6628C43.1394 20.3652 43.2754 20.2283 43.2754 19.7478V8.99945C43.2754 8.51897 43.1394 8.38208 42.6628 8.38208H40.3035C39.827 8.38208 39.6909 8.51897 39.6909 8.99945V19.7478Z" fill="white"/>
<path d="M59.3815 16.018C59.3849 16.036 59.3891 16.0533 59.3939 16.0706H64.9178L59.3815 16.018ZM57.2425 16.0789L55.9848 16.0872C56.6603 18.7599 58.9319 20.61 62.0101 20.61C63.975 20.61 65.2293 20.153 66.3951 19.2176C66.6686 19.0116 66.6914 18.6687 66.44 18.3265L65.6181 17.1636C65.4814 16.9576 65.3211 16.8442 65.116 16.8442C64.9793 16.8442 64.819 16.8891 64.636 17.0039C63.9971 17.3682 63.2429 17.5964 62.171 17.5964C60.6861 17.5964 59.7088 17.3924 59.3953 16.0782C59.3946 16.0754 59.3946 16.0734 59.3939 16.0706L58.4995 16.0699L57.2425 16.0789ZM61.8506 8.14844C59.0009 8.14844 56.6644 10.0206 55.98 12.7224H59.5403C59.9299 11.5637 60.7718 11.0922 61.8499 11.0922C62.9964 11.0922 63.7057 11.8914 63.9426 12.7272C63.9495 12.7494 63.9557 12.7715 63.9612 12.7943H67.2515C67.3358 12.7943 67.4118 12.8316 67.4636 12.8911C67.4642 12.8925 67.4656 12.8938 67.467 12.8952C66.967 10.2156 65.0476 8.14844 61.8506 8.14844Z" fill="white"/>
<path d="M42.7533 3.21497H40.2131C39.9247 3.21497 39.6909 3.44897 39.6909 3.73762V6.2804C39.6909 6.56906 39.9247 6.80306 40.2131 6.80306H42.7533C43.0417 6.80306 43.2754 6.56906 43.2754 6.2804V3.73762C43.2754 3.44897 43.0417 3.21497 42.7533 3.21497Z" fill="white"/>
<path d="M67.6398 14.0858C67.6398 14.5836 67.5859 15.0689 67.4844 15.5342C67.4146 15.8522 67.1342 16.079 66.8089 16.079H53.9233C53.6933 16.079 53.6257 16.2235 53.7735 16.3997L56.8282 20.0445C56.9767 20.2208 56.909 20.3653 56.6791 20.3653H52.8169C52.5869 20.3653 52.2775 20.2208 52.1297 20.0445L50.0038 17.508C49.856 17.3317 49.6136 17.042 49.4665 16.8657L48.923 16.2186C48.7496 16.0119 48.6543 15.7506 48.6543 15.4803V13.2901C48.6543 13.0184 48.7503 12.7557 48.9243 12.5482L49.4665 11.9025C49.6143 11.7262 49.8567 11.4366 50.0038 11.2603L52.1062 8.75206C52.2547 8.57577 52.5641 8.43127 52.7941 8.43127H56.6556C56.8856 8.43127 56.9532 8.57577 56.8054 8.75206L53.7417 12.4065C53.5939 12.5828 53.6616 12.7273 53.8916 12.7273H67.5031C67.5935 13.1656 67.6398 13.6198 67.6398 14.0858Z" fill="#2B64F9"/>
<path d="M48.0393 3H45.6793C45.2034 3 45.0674 3.13827 45.0674 3.6229V19.743C45.0674 20.2277 45.2034 20.3653 45.6793 20.3653H48.0393C48.5152 20.3653 48.6512 20.2277 48.6512 19.743V3.6229C48.6512 3.13827 48.5152 3 48.0393 3Z" fill="white"/>
</g>
<path d="M72.9688 10.4688V20.582H72.0254V10.4688H72.9688ZM80.1348 14.2363H80.9609C81.5234 14.2363 82.002 14.334 82.3965 14.5293C82.791 14.7246 83.0938 14.9961 83.3047 15.3438C83.5156 15.6875 83.6211 16.0879 83.6211 16.5449C83.6211 17.0918 83.5117 17.5566 83.293 17.9395C83.0742 18.3223 82.7676 18.6152 82.373 18.8184C81.9785 19.0176 81.5156 19.1172 80.9844 19.1172C80.6797 19.1172 80.3711 19.0723 80.0586 18.9824C79.75 18.8926 79.4648 18.7559 79.2031 18.5723C78.9453 18.3848 78.7383 18.1445 78.582 17.8516C78.4258 17.5586 78.3477 17.209 78.3477 16.8027L78.8809 16.6504C78.8809 16.8965 78.957 17.123 79.1094 17.3301C79.2656 17.5332 79.4824 17.6953 79.7598 17.8164C80.0371 17.9375 80.3594 17.998 80.7266 17.998C81.0391 17.998 81.3047 17.9355 81.5234 17.8105C81.7461 17.6816 81.9141 17.5078 82.0273 17.2891C82.1445 17.0703 82.2031 16.8223 82.2031 16.5449C82.2031 16.2637 82.1504 16.0098 82.0449 15.7832C81.9395 15.5566 81.7832 15.375 81.5762 15.2383C81.373 15.1016 81.1211 15.0332 80.8203 15.0332H80.1348V14.2363ZM80.5918 10.3516C81.127 10.3516 81.5918 10.4453 81.9863 10.6328C82.3809 10.8203 82.6855 11.0859 82.9004 11.4297C83.1191 11.7734 83.2285 12.1816 83.2285 12.6543C83.2285 13.041 83.123 13.3926 82.9121 13.709C82.7051 14.0254 82.4121 14.2773 82.0332 14.4648C81.6582 14.6523 81.2188 14.7461 80.7148 14.7461H80.1348V13.9727H80.5684C80.8691 13.9727 81.1094 13.9219 81.2891 13.8203C81.4727 13.7148 81.6055 13.5664 81.6875 13.375C81.7734 13.1836 81.8164 12.9609 81.8164 12.707C81.8164 12.4922 81.7715 12.293 81.6816 12.1094C81.5918 11.9219 81.457 11.7695 81.2773 11.6523C81.0977 11.5352 80.8691 11.4766 80.5918 11.4766C80.3457 11.4766 80.1211 11.5332 79.918 11.6465C79.7188 11.7598 79.5605 11.9199 79.4434 12.127C79.3301 12.3301 79.2734 12.5645 79.2734 12.8301V21.3145H77.8613V12.8301C77.8613 12.3496 77.9863 11.9238 78.2363 11.5527C78.4863 11.1777 78.8164 10.8848 79.2266 10.6738C79.6406 10.459 80.0957 10.3516 80.5918 10.3516ZM87.6699 19.1172C87.2012 19.1172 86.7773 19.041 86.3984 18.8887C86.0234 18.7324 85.7031 18.5156 85.4375 18.2383C85.1758 17.9609 84.9746 17.6348 84.834 17.2598C84.6934 16.8848 84.623 16.4805 84.623 16.0469V15.8125C84.623 15.3164 84.6953 14.8672 84.8398 14.4648C84.9844 14.0625 85.1855 13.7188 85.4434 13.4336C85.7012 13.1445 86.0059 12.9238 86.3574 12.7715C86.709 12.6191 87.0898 12.543 87.5 12.543C87.9531 12.543 88.3496 12.6191 88.6895 12.7715C89.0293 12.9238 89.3105 13.1387 89.5332 13.416C89.7598 13.6895 89.9277 14.0156 90.0371 14.3945C90.1504 14.7734 90.207 15.1914 90.207 15.6484V16.252H85.3086V15.2383H88.8125V15.127C88.8047 14.873 88.7539 14.6348 88.6602 14.4121C88.5703 14.1895 88.4316 14.0098 88.2441 13.873C88.0566 13.7363 87.8066 13.668 87.4941 13.668C87.2598 13.668 87.0508 13.7188 86.8672 13.8203C86.6875 13.918 86.5371 14.0605 86.416 14.248C86.2949 14.4355 86.2012 14.6621 86.1348 14.9277C86.0723 15.1895 86.041 15.4844 86.041 15.8125V16.0469C86.041 16.3242 86.0781 16.582 86.1523 16.8203C86.2305 17.0547 86.3438 17.2598 86.4922 17.4355C86.6406 17.6113 86.8203 17.75 87.0312 17.8516C87.2422 17.9492 87.4824 17.998 87.752 17.998C88.0918 17.998 88.3945 17.9297 88.6602 17.793C88.9258 17.6562 89.1562 17.4629 89.3516 17.2129L90.0957 17.9336C89.959 18.1328 89.7812 18.3242 89.5625 18.5078C89.3438 18.6875 89.0762 18.834 88.7598 18.9473C88.4473 19.0605 88.084 19.1172 87.6699 19.1172ZM94.2148 12.6602V13.6914H90.6406V12.6602H94.2148ZM91.6719 11.1074H93.084V17.248C93.084 17.4434 93.1113 17.5938 93.166 17.6992C93.2246 17.8008 93.3047 17.8691 93.4062 17.9043C93.5078 17.9395 93.627 17.957 93.7637 17.957C93.8613 17.957 93.9551 17.9512 94.0449 17.9395C94.1348 17.9277 94.207 17.916 94.2617 17.9043L94.2676 18.9824C94.1504 19.0176 94.0137 19.0488 93.8574 19.0762C93.7051 19.1035 93.5293 19.1172 93.3301 19.1172C93.0059 19.1172 92.7188 19.0605 92.4688 18.9473C92.2188 18.8301 92.0234 18.6406 91.8828 18.3789C91.7422 18.1172 91.6719 17.7695 91.6719 17.3359V11.1074ZM98.8789 17.7285V14.7051C98.8789 14.4785 98.8379 14.2832 98.7559 14.1191C98.6738 13.9551 98.5488 13.8281 98.3809 13.7383C98.2168 13.6484 98.0098 13.6035 97.7598 13.6035C97.5293 13.6035 97.3301 13.6426 97.1621 13.7207C96.9941 13.7988 96.8633 13.9043 96.7695 14.0371C96.6758 14.1699 96.6289 14.3203 96.6289 14.4883H95.2227C95.2227 14.2383 95.2832 13.9961 95.4043 13.7617C95.5254 13.5273 95.7012 13.3184 95.9316 13.1348C96.1621 12.9512 96.4375 12.8066 96.7578 12.7012C97.0781 12.5957 97.4375 12.543 97.8359 12.543C98.3125 12.543 98.7344 12.623 99.1016 12.7832C99.4727 12.9434 99.7637 13.1855 99.9746 13.5098C100.189 13.8301 100.297 14.2324 100.297 14.7168V17.5352C100.297 17.8242 100.316 18.084 100.355 18.3145C100.398 18.541 100.459 18.7383 100.537 18.9062V19H99.0898C99.0234 18.8477 98.9707 18.6543 98.9316 18.4199C98.8965 18.1816 98.8789 17.9512 98.8789 17.7285ZM99.084 15.1445L99.0957 16.0176H98.082C97.8203 16.0176 97.5898 16.043 97.3906 16.0938C97.1914 16.1406 97.0254 16.2109 96.8926 16.3047C96.7598 16.3984 96.6602 16.5117 96.5938 16.6445C96.5273 16.7773 96.4941 16.9277 96.4941 17.0957C96.4941 17.2637 96.5332 17.418 96.6113 17.5586C96.6895 17.6953 96.8027 17.8027 96.9512 17.8809C97.1035 17.959 97.2871 17.998 97.502 17.998C97.791 17.998 98.043 17.9395 98.2578 17.8223C98.4766 17.7012 98.6484 17.5547 98.7734 17.3828C98.8984 17.207 98.9648 17.041 98.9727 16.8848L99.4297 17.5117C99.3828 17.6719 99.3027 17.8438 99.1895 18.0273C99.0762 18.2109 98.9277 18.3867 98.7441 18.5547C98.5645 18.7188 98.3477 18.8535 98.0938 18.959C97.8438 19.0645 97.5547 19.1172 97.2266 19.1172C96.8125 19.1172 96.4434 19.0352 96.1191 18.8711C95.7949 18.7031 95.541 18.4785 95.3574 18.1973C95.1738 17.9121 95.082 17.5898 95.082 17.2305C95.082 16.8945 95.1445 16.5977 95.2695 16.3398C95.3984 16.0781 95.5859 15.8594 95.832 15.6836C96.082 15.5078 96.3867 15.375 96.7461 15.2852C97.1055 15.1914 97.5156 15.1445 97.9766 15.1445H99.084Z" fill="white"/>
</svg>
