<svg width="102" height="25" viewBox="0 0 102 25" fill="none" xmlns="http://www.w3.org/2000/svg">
<mask id="mask0_1_31" style="mask-type:luminance" maskUnits="userSpaceOnUse" x="0" y="0" width="76" height="25">
<path d="M76 0.171387H0V24.1714H76V0.171387Z" fill="white"/>
</mask>
<g mask="url(#mask0_1_31)">
<path d="M13.5714 7.95679C14.9379 7.95679 15.9956 8.39701 17.1404 9.10313C17.2719 9.19176 17.3827 9.2346 17.4713 9.2346C17.625 9.2346 17.7579 9.10313 17.9337 8.81654L18.9471 7.14283C19.2115 6.70261 19.1672 6.52534 18.8156 6.30523C16.8775 5.11605 15.5332 4.74083 13.4621 4.74083C10.1132 4.74083 7.6462 6.59182 7.6462 9.72062C7.6462 13.6427 11.1931 14.0386 13.6837 14.501C15.0501 14.7654 15.9084 15.052 15.9084 16.1097C15.9084 16.9916 15.2259 17.5205 13.5064 17.5205C12.0528 17.5205 10.4441 16.9251 9.14413 16.1097C9.01265 16.0211 8.90186 15.9782 8.81322 15.9782C8.65959 15.9782 8.52664 16.1097 8.35085 16.3963L7.33746 18.1365C7.09519 18.5767 7.11735 18.7096 7.46893 18.9741C8.98901 20.0982 11.1709 20.7364 13.6157 20.7364C17.1183 20.7364 19.5424 18.754 19.5424 15.9339C19.5424 11.9025 16.1714 11.5495 13.6822 11.1092C12.2714 10.867 11.2802 10.6025 11.2802 9.56698C11.2802 8.53144 12.1178 7.95827 13.5714 7.95827V7.95679Z" fill="#010514"/>
<path d="M22.2887 8.76197H21.3743C20.8942 8.76197 20.7568 8.89935 20.7568 9.37798V11.938C20.7568 12.4167 20.8942 12.554 21.3743 12.554H22.1514V16.3845C22.1514 19.6478 23.9107 20.9728 26.5624 20.9728C27.2257 20.9728 28.276 20.8591 29.0988 20.3332C29.4652 20.1057 29.5789 19.9683 29.4194 19.5576L28.6881 17.686C28.5966 17.4585 28.4828 17.3211 28.1859 17.4349C27.6836 17.618 27.4089 17.7318 26.883 17.7318C26.038 17.7318 25.7632 17.4585 25.7632 16.3845V12.554H28.5286C29.0087 12.554 29.1461 12.4167 29.1461 11.938V9.37798C29.1461 8.89935 29.0087 8.76197 28.5286 8.76197H25.7632V7.15178C25.7632 6.67315 25.6258 6.53577 25.1457 6.53577H22.9062C22.4261 6.53577 22.2887 6.67315 22.2887 7.15178V8.76197Z" fill="#010514"/>
<path d="M37.6653 12.4151C38.1218 12.4151 38.2591 12.3235 38.3286 11.842L38.6713 9.32769C38.7171 8.91554 38.6934 8.75452 38.1232 8.75452C35.9753 8.75452 34.9235 9.31882 34.1465 10.6262L33.4611 9.41041C33.2099 8.97463 33.0267 8.79145 32.6604 8.79145H31.5628C31.0827 8.79145 30.9453 8.92883 30.9453 9.41041V20.116C30.9453 20.5976 31.0827 20.7349 31.5628 20.7349H33.9397C34.4198 20.7349 34.5572 20.5976 34.5572 20.116V14.7994C34.5572 13.1936 35.38 12.4151 37.6653 12.4151Z" fill="#010514"/>
<path d="M40.4912 20.1189C40.4912 20.5991 40.6271 20.7364 41.1043 20.7364H43.4664C43.9435 20.7364 44.0794 20.5991 44.0794 20.1189V9.37054C44.0794 8.89044 43.9435 8.75305 43.4664 8.75305H41.1043C40.6271 8.75305 40.4912 8.89044 40.4912 9.37054V20.1189Z" fill="#010514"/>
<path d="M60.2715 16.3889C60.2744 16.4066 60.2789 16.4244 60.2833 16.4406H65.8126L60.2715 16.3889ZM58.131 16.4495L56.8724 16.4347C57.5489 19.107 59.8224 20.9817 62.9039 20.9817C64.8701 20.9817 66.1258 20.5252 67.2928 19.5901C67.5676 19.3848 67.5897 19.0406 67.3386 18.6993L66.5158 17.5367C66.3784 17.3314 66.2189 17.2177 66.0135 17.2177C65.8761 17.2177 65.7166 17.2634 65.5334 17.3772C64.8938 17.7421 64.1389 17.9696 63.0664 17.9696C61.5803 17.9696 60.6009 17.7657 60.2877 16.451C60.2877 16.448 60.2877 16.4451 60.2877 16.4421H59.3925L58.1339 16.451L58.131 16.4495ZM62.7429 8.51965C59.8904 8.51965 57.5519 10.415 56.8665 13.1168H60.431C60.821 11.9587 61.6645 11.4623 62.7429 11.4623C63.8907 11.4623 64.6013 12.2615 64.8376 13.0976C64.845 13.1198 64.8509 13.1419 64.8569 13.1641H68.1511C68.2353 13.1641 68.3121 13.201 68.3638 13.2616C68.3638 13.2616 68.3446 13.1789 68.3461 13.1804C67.8453 10.5006 65.9441 8.51965 62.7444 8.51965H62.7429Z" fill="#010514"/>
<path d="M68.4671 14.4566C68.4671 14.8703 68.4302 15.275 68.3593 15.6665C68.278 16.12 67.8821 16.4494 67.4227 16.4494H54.7376C54.5072 16.4494 54.4392 16.5942 54.587 16.77L57.6448 20.4143C57.794 20.5901 57.7261 20.7349 57.4956 20.7349H53.6297C53.3993 20.7349 53.0905 20.5901 52.9413 20.4143L50.8126 17.8779C50.6649 17.7021 50.4226 17.4126 50.2749 17.2353L49.7313 16.5883C49.5835 16.4125 49.4624 16.0801 49.4624 15.8497V13.6604C49.4624 13.43 49.5835 13.0946 49.7327 12.9188L50.2749 12.2733C50.4226 12.0975 50.6649 11.8079 50.8126 11.6307L52.9177 9.12232C53.0669 8.94653 53.3756 8.80176 53.6061 8.80176H57.472C57.7025 8.80176 57.7704 8.94653 57.6227 9.12232L54.5559 12.777C54.4082 12.9528 54.4762 13.0976 54.7066 13.0976H68.3312C68.4213 13.5363 68.4686 13.9898 68.4686 14.4552L68.4671 14.4566Z" fill="#2B64F9"/>
<path d="M48.848 3.37147H46.4859C46.0087 3.37147 45.8728 3.51033 45.8728 3.99487V20.1145C45.8728 20.5991 46.0087 20.7364 46.4859 20.7364H48.848C49.3251 20.7364 49.461 20.5991 49.461 20.1145V3.99339C49.461 3.50886 49.3251 3.37 48.848 3.37V3.37147Z" fill="#010514"/>
<path d="M43.4664 3.37146H41.1043C40.6271 3.37146 40.4912 3.51032 40.4912 3.99486V6.34662C40.4912 6.83116 40.6271 6.96854 41.1043 6.96854H43.4664C43.9435 6.96854 44.0794 6.83116 44.0794 6.34662V3.99486C44.0794 3.51032 43.9435 3.37146 43.4664 3.37146Z" fill="#010514"/>
</g>
<path d="M72.9688 10.4688V20.582H72.0254V10.4688H72.9688ZM80.1348 14.2363H80.9609C81.5234 14.2363 82.002 14.334 82.3965 14.5293C82.791 14.7246 83.0938 14.9961 83.3047 15.3438C83.5156 15.6875 83.6211 16.0879 83.6211 16.5449C83.6211 17.0918 83.5117 17.5566 83.293 17.9395C83.0742 18.3223 82.7676 18.6152 82.373 18.8184C81.9785 19.0176 81.5156 19.1172 80.9844 19.1172C80.6797 19.1172 80.3711 19.0723 80.0586 18.9824C79.75 18.8926 79.4648 18.7559 79.2031 18.5723C78.9453 18.3848 78.7383 18.1445 78.582 17.8516C78.4258 17.5586 78.3477 17.209 78.3477 16.8027L78.8809 16.6504C78.8809 16.8965 78.957 17.123 79.1094 17.3301C79.2656 17.5332 79.4824 17.6953 79.7598 17.8164C80.0371 17.9375 80.3594 17.998 80.7266 17.998C81.0391 17.998 81.3047 17.9355 81.5234 17.8105C81.7461 17.6816 81.9141 17.5078 82.0273 17.2891C82.1445 17.0703 82.2031 16.8223 82.2031 16.5449C82.2031 16.2637 82.1504 16.0098 82.0449 15.7832C81.9395 15.5566 81.7832 15.375 81.5762 15.2383C81.373 15.1016 81.1211 15.0332 80.8203 15.0332H80.1348V14.2363ZM80.5918 10.3516C81.127 10.3516 81.5918 10.4453 81.9863 10.6328C82.3809 10.8203 82.6855 11.0859 82.9004 11.4297C83.1191 11.7734 83.2285 12.1816 83.2285 12.6543C83.2285 13.041 83.123 13.3926 82.9121 13.709C82.7051 14.0254 82.4121 14.2773 82.0332 14.4648C81.6582 14.6523 81.2188 14.7461 80.7148 14.7461H80.1348V13.9727H80.5684C80.8691 13.9727 81.1094 13.9219 81.2891 13.8203C81.4727 13.7148 81.6055 13.5664 81.6875 13.375C81.7734 13.1836 81.8164 12.9609 81.8164 12.707C81.8164 12.4922 81.7715 12.293 81.6816 12.1094C81.5918 11.9219 81.457 11.7695 81.2773 11.6523C81.0977 11.5352 80.8691 11.4766 80.5918 11.4766C80.3457 11.4766 80.1211 11.5332 79.918 11.6465C79.7188 11.7598 79.5605 11.9199 79.4434 12.127C79.3301 12.3301 79.2734 12.5645 79.2734 12.8301V21.3145H77.8613V12.8301C77.8613 12.3496 77.9863 11.9238 78.2363 11.5527C78.4863 11.1777 78.8164 10.8848 79.2266 10.6738C79.6406 10.459 80.0957 10.3516 80.5918 10.3516ZM87.6699 19.1172C87.2012 19.1172 86.7773 19.041 86.3984 18.8887C86.0234 18.7324 85.7031 18.5156 85.4375 18.2383C85.1758 17.9609 84.9746 17.6348 84.834 17.2598C84.6934 16.8848 84.623 16.4805 84.623 16.0469V15.8125C84.623 15.3164 84.6953 14.8672 84.8398 14.4648C84.9844 14.0625 85.1855 13.7188 85.4434 13.4336C85.7012 13.1445 86.0059 12.9238 86.3574 12.7715C86.709 12.6191 87.0898 12.543 87.5 12.543C87.9531 12.543 88.3496 12.6191 88.6895 12.7715C89.0293 12.9238 89.3105 13.1387 89.5332 13.416C89.7598 13.6895 89.9277 14.0156 90.0371 14.3945C90.1504 14.7734 90.207 15.1914 90.207 15.6484V16.252H85.3086V15.2383H88.8125V15.127C88.8047 14.873 88.7539 14.6348 88.6602 14.4121C88.5703 14.1895 88.4316 14.0098 88.2441 13.873C88.0566 13.7363 87.8066 13.668 87.4941 13.668C87.2598 13.668 87.0508 13.7188 86.8672 13.8203C86.6875 13.918 86.5371 14.0605 86.416 14.248C86.2949 14.4355 86.2012 14.6621 86.1348 14.9277C86.0723 15.1895 86.041 15.4844 86.041 15.8125V16.0469C86.041 16.3242 86.0781 16.582 86.1523 16.8203C86.2305 17.0547 86.3438 17.2598 86.4922 17.4355C86.6406 17.6113 86.8203 17.75 87.0312 17.8516C87.2422 17.9492 87.4824 17.998 87.752 17.998C88.0918 17.998 88.3945 17.9297 88.6602 17.793C88.9258 17.6562 89.1562 17.4629 89.3516 17.2129L90.0957 17.9336C89.959 18.1328 89.7812 18.3242 89.5625 18.5078C89.3438 18.6875 89.0762 18.834 88.7598 18.9473C88.4473 19.0605 88.084 19.1172 87.6699 19.1172ZM94.2148 12.6602V13.6914H90.6406V12.6602H94.2148ZM91.6719 11.1074H93.084V17.248C93.084 17.4434 93.1113 17.5938 93.166 17.6992C93.2246 17.8008 93.3047 17.8691 93.4062 17.9043C93.5078 17.9395 93.627 17.957 93.7637 17.957C93.8613 17.957 93.9551 17.9512 94.0449 17.9395C94.1348 17.9277 94.207 17.916 94.2617 17.9043L94.2676 18.9824C94.1504 19.0176 94.0137 19.0488 93.8574 19.0762C93.7051 19.1035 93.5293 19.1172 93.3301 19.1172C93.0059 19.1172 92.7188 19.0605 92.4688 18.9473C92.2188 18.8301 92.0234 18.6406 91.8828 18.3789C91.7422 18.1172 91.6719 17.7695 91.6719 17.3359V11.1074ZM98.8789 17.7285V14.7051C98.8789 14.4785 98.8379 14.2832 98.7559 14.1191C98.6738 13.9551 98.5488 13.8281 98.3809 13.7383C98.2168 13.6484 98.0098 13.6035 97.7598 13.6035C97.5293 13.6035 97.3301 13.6426 97.1621 13.7207C96.9941 13.7988 96.8633 13.9043 96.7695 14.0371C96.6758 14.1699 96.6289 14.3203 96.6289 14.4883H95.2227C95.2227 14.2383 95.2832 13.9961 95.4043 13.7617C95.5254 13.5273 95.7012 13.3184 95.9316 13.1348C96.1621 12.9512 96.4375 12.8066 96.7578 12.7012C97.0781 12.5957 97.4375 12.543 97.8359 12.543C98.3125 12.543 98.7344 12.623 99.1016 12.7832C99.4727 12.9434 99.7637 13.1855 99.9746 13.5098C100.189 13.8301 100.297 14.2324 100.297 14.7168V17.5352C100.297 17.8242 100.316 18.084 100.355 18.3145C100.398 18.541 100.459 18.7383 100.537 18.9062V19H99.0898C99.0234 18.8477 98.9707 18.6543 98.9316 18.4199C98.8965 18.1816 98.8789 17.9512 98.8789 17.7285ZM99.084 15.1445L99.0957 16.0176H98.082C97.8203 16.0176 97.5898 16.043 97.3906 16.0938C97.1914 16.1406 97.0254 16.2109 96.8926 16.3047C96.7598 16.3984 96.6602 16.5117 96.5938 16.6445C96.5273 16.7773 96.4941 16.9277 96.4941 17.0957C96.4941 17.2637 96.5332 17.418 96.6113 17.5586C96.6895 17.6953 96.8027 17.8027 96.9512 17.8809C97.1035 17.959 97.2871 17.998 97.502 17.998C97.791 17.998 98.043 17.9395 98.2578 17.8223C98.4766 17.7012 98.6484 17.5547 98.7734 17.3828C98.8984 17.207 98.9648 17.041 98.9727 16.8848L99.4297 17.5117C99.3828 17.6719 99.3027 17.8438 99.1895 18.0273C99.0762 18.2109 98.9277 18.3867 98.7441 18.5547C98.5645 18.7188 98.3477 18.8535 98.0938 18.959C97.8438 19.0645 97.5547 19.1172 97.2266 19.1172C96.8125 19.1172 96.4434 19.0352 96.1191 18.8711C95.7949 18.7031 95.541 18.4785 95.3574 18.1973C95.1738 17.9121 95.082 17.5898 95.082 17.2305C95.082 16.8945 95.1445 16.5977 95.2695 16.3398C95.3984 16.0781 95.5859 15.8594 95.832 15.6836C96.082 15.5078 96.3867 15.375 96.7461 15.2852C97.1055 15.1914 97.5156 15.1445 97.9766 15.1445H99.084Z" fill="#010514"/>
</svg>
