<svg width="76" height="25" viewBox="0 0 76 25" fill="none" xmlns="http://www.w3.org/2000/svg">
<g clip-path="url(#clip0_326_2160)">
<path d="M13.3892 7.58643C14.7539 7.58643 15.8106 8.02682 16.955 8.73199C17.0869 8.81979 17.1974 8.86404 17.2852 8.86404C17.4392 8.86404 17.5711 8.73199 17.7472 8.44508L18.7597 6.77064C19.0235 6.33025 18.98 6.15396 18.6278 5.93342C16.6912 4.74361 15.3486 4.3689 13.2793 4.3689C9.93379 4.36959 7.46883 6.22032 7.46883 9.34867C7.46883 13.2707 11.0126 13.6668 13.4997 14.13C14.8644 14.3941 15.7229 14.681 15.7229 15.7381C15.7229 16.6196 15.0405 17.1485 13.3235 17.1485C11.8711 17.1485 10.2639 16.5539 8.96549 15.7381C8.83357 15.6503 8.72307 15.6061 8.63535 15.6061C8.48133 15.6061 8.34942 15.7381 8.1733 16.025L7.1608 17.7658C6.91838 18.2062 6.94048 18.339 7.29271 18.6031C8.81147 19.7265 10.9905 20.366 13.4334 20.366C16.9329 20.366 19.3544 18.3832 19.3544 15.5632C19.3544 11.5313 15.9867 11.1787 13.4997 10.7383C12.0907 10.4956 11.1003 10.2315 11.1003 9.19589C11.1003 8.16025 11.9367 7.58781 13.3892 7.58781V7.58643Z" fill="white"/>
<path d="M21.1743 8.39115H20.2613C19.782 8.39115 19.6445 8.52804 19.6445 9.00715V11.5672C19.6445 12.0463 19.7813 12.1832 20.2613 12.1832H21.0376V16.0146C21.0376 19.2785 22.796 20.6024 25.4447 20.6024C26.107 20.6024 27.1575 20.4884 27.9794 19.9629C28.3448 19.7348 28.4587 19.5979 28.2992 19.1872L27.5685 17.3158C27.4773 17.0876 27.3626 16.9507 27.0663 17.0648C26.5642 17.2473 26.29 17.3614 25.7651 17.3614C24.9205 17.3614 24.6463 17.0876 24.6463 16.0146V12.1832H27.4089C27.8882 12.1832 28.0257 12.0463 28.0257 11.5672V9.00715C28.0257 8.52804 27.8889 8.39115 27.4089 8.39115H24.6463V6.51968C24.6463 6.04057 24.5095 5.90369 24.0295 5.90369H21.7918C21.3125 5.90369 21.175 6.04057 21.175 6.51968V8.39115H21.1743Z" fill="white"/>
<path d="M36.869 12.0435C37.3255 12.0435 37.4629 11.9516 37.5313 11.4704L37.8739 8.95667C37.9195 8.54394 37.8967 8.38354 37.3262 8.38354C35.1796 8.38354 34.1291 8.94768 33.3528 10.255L32.6677 9.03963C32.4163 8.60408 32.234 8.42019 31.8686 8.42019H30.7725C30.2932 8.42019 30.1558 8.55776 30.1558 9.03963V19.7458C30.1558 20.2277 30.2925 20.3653 30.7725 20.3653H33.147C33.6263 20.3653 33.7638 20.2277 33.7638 19.7458V14.4287C33.7638 12.8234 34.5856 12.0435 36.869 12.0435Z" fill="white"/>
<path d="M39.6909 19.7478C39.6909 20.2283 39.827 20.3652 40.3035 20.3652H42.6628C43.1394 20.3652 43.2754 20.2283 43.2754 19.7478V8.99945C43.2754 8.51897 43.1394 8.38208 42.6628 8.38208H40.3035C39.827 8.38208 39.6909 8.51897 39.6909 8.99945V19.7478Z" fill="white"/>
<path d="M59.3815 16.018C59.3849 16.036 59.3891 16.0533 59.3939 16.0706H64.9178L59.3815 16.018ZM57.2425 16.0789L55.9848 16.0872C56.6603 18.7599 58.9319 20.61 62.0101 20.61C63.975 20.61 65.2293 20.153 66.3951 19.2176C66.6686 19.0116 66.6914 18.6687 66.44 18.3265L65.6181 17.1636C65.4814 16.9576 65.3211 16.8442 65.116 16.8442C64.9793 16.8442 64.819 16.8891 64.636 17.0039C63.9971 17.3682 63.2429 17.5964 62.171 17.5964C60.6861 17.5964 59.7088 17.3924 59.3953 16.0782C59.3946 16.0754 59.3946 16.0727 59.3939 16.0699H58.4995L57.2432 16.0782L57.2425 16.0789ZM61.8506 8.14844C59.0009 8.14844 56.6644 10.0206 55.98 12.7224H59.5403C59.9299 11.5637 60.7718 11.0922 61.8499 11.0922C62.9964 11.0922 63.7057 11.8914 63.9426 12.7272C63.9495 12.7494 63.9557 12.7715 63.9612 12.7943H67.2515C67.3358 12.7943 67.4118 12.8316 67.4636 12.8911C67.4642 12.8925 67.4656 12.8938 67.467 12.8952C66.967 10.2156 65.0469 8.14844 61.8499 8.14844H61.8506Z" fill="white"/>
<path d="M42.7533 3.21497H40.2131C39.9247 3.21497 39.6909 3.44897 39.6909 3.73762V6.2804C39.6909 6.56906 39.9247 6.80306 40.2131 6.80306H42.7533C43.0417 6.80306 43.2754 6.56906 43.2754 6.2804V3.73762C43.2754 3.44897 43.0417 3.21497 42.7533 3.21497Z" fill="white"/>
<path d="M67.6398 14.0858C67.6398 14.5836 67.5859 15.0689 67.4844 15.5342C67.4146 15.8522 67.1342 16.079 66.8089 16.079H53.9233C53.6933 16.079 53.6257 16.2235 53.7735 16.3997L56.8282 20.0445C56.9767 20.2208 56.909 20.3653 56.6791 20.3653H52.8169C52.5869 20.3653 52.2775 20.2208 52.1297 20.0445L50.0038 17.508C49.856 17.3317 49.6136 17.042 49.4665 16.8657L48.923 16.2186C48.7496 16.0119 48.6543 15.7506 48.6543 15.4803V13.2901C48.6543 13.0184 48.7503 12.7557 48.9243 12.5482L49.4665 11.9025C49.6143 11.7262 49.8567 11.4366 50.0038 11.2603L52.1062 8.75206C52.2547 8.57577 52.5641 8.43127 52.7941 8.43127H56.6556C56.8856 8.43127 56.9532 8.57577 56.8054 8.75206L53.7417 12.4065C53.5939 12.5828 53.6616 12.7273 53.8916 12.7273H67.5031C67.5935 13.1656 67.6398 13.6198 67.6398 14.0858Z" fill="#2B64F9"/>
<path d="M48.0393 3H45.6793C45.2034 3 45.0674 3.13827 45.0674 3.6229V19.743C45.0674 20.2277 45.2034 20.3653 45.6793 20.3653H48.0393C48.5152 20.3653 48.6512 20.2277 48.6512 19.743V3.6229C48.6512 3.13827 48.5152 3 48.0393 3Z" fill="white"/>
</g>
<defs>
<clipPath id="clip0_326_2160">
<rect width="76" height="24" fill="white" transform="translate(0 0.171387)"/>
</clipPath>
</defs>
</svg>
